<?xml version="1.0" encoding="UTF-8" standalone="no"?>
<!-- Created with Inkscape (http://www.inkscape.org/) -->

<svg
   width="36.36113mm"
   height="52.631256mm"
   viewBox="0 0 36.36113 52.631256"
   version="1.1"
   id="svg5"
   xml:space="preserve"
   inkscape:version="1.2.1 (9c6d41e410, 2022-07-14)"
   sodipodi:docname="cheevos.svg"
   xmlns:inkscape="http://www.inkscape.org/namespaces/inkscape"
   xmlns:sodipodi="http://sodipodi.sourceforge.net/DTD/sodipodi-0.dtd"
   xmlns="http://www.w3.org/2000/svg"
   xmlns:svg="http://www.w3.org/2000/svg"><sodipodi:namedview
     id="namedview7"
     pagecolor="#ffffff"
     bordercolor="#000000"
     borderopacity="0.25"
     inkscape:showpageshadow="2"
     inkscape:pageopacity="0.0"
     inkscape:pagecheckerboard="0"
     inkscape:deskcolor="#d1d1d1"
     inkscape:document-units="mm"
     showgrid="false"
     inkscape:zoom="1.5625561"
     inkscape:cx="-0.31998851"
     inkscape:cy="163.19414"
     inkscape:window-width="1858"
     inkscape:window-height="1057"
     inkscape:window-x="54"
     inkscape:window-y="-8"
     inkscape:window-maximized="1"
     inkscape:current-layer="layer1" /><defs
     id="defs2" /><g
     inkscape:label="Calque 1"
     inkscape:groupmode="layer"
     id="layer1"
     transform="translate(-89.405011,-87.712114)"><path
       style="fill:#f3f3f5;stroke:none;stroke-width:0.264583"
       d="m 95.023941,92.189207 -1.40313,3.828706 -2.29349,1.63158 -0.14452,3.535537 -1.77779,3.175 1.16512,3.175 -0.62267,3.4357 2.42329,2.91536 0.54388,3.06308 3.30034,1.83039 1.63978,2.77098 3.519189,0.43154 2.91042,1.97511 3.43958,-0.87577 3.17473,0.86069 3.17924,-2.13307 3.06123,-0.14711 1.86875,-2.94084 3.26072,-1.79599 0.54505,-3.02975 2.63736,-2.65615 -0.79401,-3.96875 1.10913,-2.91042 -1.85843,-3.32729 0.12594,-2.967167 -2.70219,-2.31203 -1.1721,-3.564336 -3.8825,-0.942974 -2.03861,-2.326547 -3.75629,0.28439 -3.0226,-1.491962 -3.175,1.528704 -3.41569,-0.195373 -2.186489,2.265902 -3.65824,0.87786 m 11.377079,0.60492 c 9.64671,-1.184753 16.75659,9.212943 13.29267,17.915903 -1.88383,4.73287 -6.24655,7.52899 -11.176,8.12642 -7.55419,0.91546 -14.507819,-6.25608 -13.999229,-13.68267 0.45056,-6.579467 5.41761,-11.565697 11.882559,-12.359653 m -0.26458,1.360456 c -1.87981,0.26993 -3.74009,0.85794 -5.29166,1.98437 -9.266479,6.727457 -4.090959,23.059447 7.93749,21.337007 2.28362,-0.32702 4.55269,-1.1303 6.34974,-2.61964 8.70823,-7.21646 2.3577,-22.331883 -8.99557,-20.701737 m 1.85208,1.73879 c 2.07804,4.445737 4.33573,6.212337 9.26042,6.614577 l -3.94018,5.29167 0.23601,6.08542 -5.82083,-2.07992 -6.08541,2.07992 c 0.40166,-1.68715 1.00975,-4.72329 0.26765,-6.35001 -0.87085,-1.90886 -2.843579,-3.08932 -3.707239,-5.02708 5.180729,-0.42315 6.746049,-2.35101 9.260419,-6.614577 h 0.52916 m 11.37709,24.870827 c -1.42902,2.87285 -2.71092,1.23058 -5.02709,2.38866 -1.75921,0.87948 -2.08121,2.6879 -4.23333,1.84468 l -1.49648,7.40833 1.49648,7.67292 5.97323,-5.12313 7.25594,2.47729 -3.96875,-16.66875 m -23.283329,1.05834 -3.43959,15.61041 c 1.95477,-0.5588 5.08172,-2.80035 7.09864,-2.45427 1.820149,0.31221 4.528099,3.94811 5.601359,5.36469 h 0.26458 l 3.43959,-15.61042 -4.94766,0.92393 -2.72629,-2.35188 z"
       id="path181" /></g></svg>
