<?xml version="1.0" encoding="UTF-8" standalone="no"?>
<!-- Created with Inkscape (http://www.inkscape.org/) -->

<svg
   width="67.73333mm"
   height="67.73333mm"
   viewBox="0 0 67.73333 67.73333"
   version="1.1"
   id="svg5"
   xml:space="preserve"
   inkscape:version="1.2.1 (9c6d41e410, 2022-07-14)"
   sodipodi:docname="fav-corner.svg"
   xmlns:inkscape="http://www.inkscape.org/namespaces/inkscape"
   xmlns:sodipodi="http://sodipodi.sourceforge.net/DTD/sodipodi-0.dtd"
   xmlns="http://www.w3.org/2000/svg"
   xmlns:svg="http://www.w3.org/2000/svg"><sodipodi:namedview
     id="namedview7"
     pagecolor="#ffffff"
     bordercolor="#000000"
     borderopacity="0.25"
     inkscape:showpageshadow="2"
     inkscape:pageopacity="0.0"
     inkscape:pagecheckerboard="0"
     inkscape:deskcolor="#d1d1d1"
     inkscape:document-units="mm"
     showgrid="false"
     inkscape:zoom="2.2097881"
     inkscape:cx="35.523769"
     inkscape:cy="138.02229"
     inkscape:window-width="1858"
     inkscape:window-height="1057"
     inkscape:window-x="54"
     inkscape:window-y="-8"
     inkscape:window-maximized="1"
     inkscape:current-layer="layer1" /><defs
     id="defs2" /><g
     inkscape:label="Calque 1"
     inkscape:groupmode="layer"
     id="layer1"
     transform="translate(-118.7922,-94.72599)"><path
       style="fill:#f3f3f4;stroke:none;stroke-width:0.0846667"
       d="m 118.7922,94.72599 1.60867,1.778 3.556,3.556 12.10733,12.10733 35.47533,35.47533 10.414,10.414 2.96334,2.96334 1.60866,1.43933 V 94.72599 H 118.7922 m 48.34585,6.06593 c 0.42003,-0.068 0.73525,0.20657 0.94048,0.54173 0.44111,0.72045 0.77639,1.52675 1.15384,2.28234 0.56117,1.12344 1.08923,2.26314 1.651,3.38667 0.2065,0.41308 0.39793,1.04715 0.84438,1.2589 0.54965,0.26078 1.33138,0.23419 1.92845,0.32919 1.43603,0.2286 2.8785,0.42011 4.318,0.62526 0.61451,0.0875 1.93125,0.0615 1.98061,0.92185 0.0417,0.72602 -0.93608,1.328 -1.38837,1.77656 -0.99602,0.98798 -1.96367,2.00838 -3.00041,2.95394 -0.44366,0.40462 -1.19888,0.92676 -1.35924,1.5323 -0.15266,0.57666 0.1502,1.3721 0.24663,1.94733 0.25104,1.49691 0.50555,2.99339 0.77394,4.48733 0.11845,0.65913 0.51807,1.96799 -0.47185,2.14063 -0.65109,0.11345 -1.48675,-0.54822 -2.03064,-0.84142 -1.23402,-0.66522 -2.47904,-1.31504 -3.72534,-1.95698 -0.50148,-0.25832 -1.09423,-0.74261 -1.66522,-0.80967 -0.48573,-0.057 -1.06037,0.42096 -1.46744,0.63686 -1.09813,0.58242 -2.19439,1.17611 -3.302,1.73999 -0.73017,0.37177 -1.44128,0.82448 -2.20134,1.13241 -0.38489,0.15587 -0.82846,0.15579 -1.09804,-0.21116 -0.39531,-0.53797 0.004,-1.65768 0.11379,-2.25399 0.25832,-1.40784 0.48294,-2.82236 0.72348,-4.23333 0.0922,-0.5406 0.39463,-1.32885 0.19169,-1.86267 -0.24681,-0.64906 -1.05648,-1.2054 -1.55948,-1.65921 -1.02311,-0.92312 -1.96554,-1.94183 -2.94344,-2.91237 -0.45186,-0.44848 -1.55981,-1.15866 -1.12513,-1.9265 0.33426,-0.5903 1.5483,-0.55432 2.14113,-0.62941 1.44238,-0.18272 2.88002,-0.42232 4.318,-0.63712 0.53086,-0.0793 1.37499,-0.0395 1.8156,-0.37389 0.44433,-0.33714 0.67174,-1.11184 0.9149,-1.59817 0.66057,-1.32114 1.28677,-2.65819 1.94734,-3.97933 0.28625,-0.57254 0.60316,-1.68955 1.33468,-1.80807 z"
       id="path593" /></g></svg>
