<?xml version="1.0" encoding="UTF-8" standalone="no"?>
<!-- Created with Inkscape (http://www.inkscape.org/) -->

<svg
   width="67.813171mm"
   height="50.338608mm"
   viewBox="0 0 67.813171 50.338608"
   version="1.1"
   id="svg5"
   sodipodi:docname="favorite.svg"
   xml:space="preserve"
   inkscape:version="1.2.1 (9c6d41e410, 2022-07-14)"
   xmlns:inkscape="http://www.inkscape.org/namespaces/inkscape"
   xmlns:sodipodi="http://sodipodi.sourceforge.net/DTD/sodipodi-0.dtd"
   xmlns="http://www.w3.org/2000/svg"
   xmlns:svg="http://www.w3.org/2000/svg"><sodipodi:namedview
     id="namedview7"
     pagecolor="#ffffff"
     bordercolor="#000000"
     borderopacity="0.25"
     inkscape:showpageshadow="2"
     inkscape:pageopacity="0.0"
     inkscape:pagecheckerboard="0"
     inkscape:deskcolor="#d1d1d1"
     inkscape:document-units="mm"
     showgrid="false"
     inkscape:zoom="2.2097881"
     inkscape:cx="43.669346"
     inkscape:cy="26.699393"
     inkscape:window-width="1858"
     inkscape:window-height="1057"
     inkscape:window-x="54"
     inkscape:window-y="-8"
     inkscape:window-maximized="1"
     inkscape:current-layer="layer1" /><defs
     id="defs2" /><g
     inkscape:label="Calque 1"
     inkscape:groupmode="layer"
     id="layer1"
     transform="translate(-36.123653,-29.47042)"><path
       style="fill:#f3f3f4;stroke:none;stroke-width:0.0846667"
       d="m 73.176146,72.962122 c 0.926845,2.243921 1.535595,4.787138 3.979335,5.853091 3.01523,1.315297 5.72516,-0.824738 8.55133,-1.666832 6.13529,-1.828123 13.51949,-3.734562 16.651989,-9.943592 0.79823,-1.582335 1.24095,-3.251792 1.51824,-4.995333 0.15223,-0.957749 -0.014,-1.874859 -0.18898,-2.798487 -0.17128,-0.904833 -0.31564,-1.755563 -0.66793,-2.620179 -1.00237,-2.45999 -2.93971,-4.471247 -5.205989,-5.809911 -0.81822,-0.483362 -1.70451,-0.931503 -2.62466,-1.183302 -0.42816,-0.117178 -1.30074,-0.123782 -1.61104,-0.458808 -0.24757,-0.267293 -0.0372,-0.791295 0.0169,-1.099312 0.15638,-0.889847 0.23944,-1.806448 0.23944,-2.709334 0,-2.775965 -0.59504,-5.565817 -1.87529,-8.043332 -3.62819,-7.020983 -12.97936,-10.01461 -20.053348,-6.608149 -1.834219,0.883243 -3.565229,2.049949 -5.08,3.410712 -0.42291,0.379899 -0.850561,0.759799 -1.250103,1.164082 -0.162391,0.164169 -0.354584,0.415883 -0.614596,0.392853 -0.263821,-0.02337 -0.471593,-0.295486 -0.644567,-0.468545 -0.444669,-0.444754 -0.916686,-0.858774 -1.385401,-1.277535 -1.406821,-1.256962 -3.039787,-2.365756 -4.741333,-3.185245 -7.055865,-3.398113 -16.310668,-0.547962 -20.0391,6.404864 -1.032036,1.924473 -1.481701,3.863932 -1.735066,6.004475 -0.03518,0.29718 -0.189602,0.558377 -0.224281,0.855641 -0.09545,0.818388 -0.08527,1.792563 -0.0019,2.612136 0.03022,0.297011 0.170189,0.563118 0.214288,0.857081 0.183824,1.225042 0.295852,2.446782 0.688362,3.638296 1.489092,4.520353 4.513563,8.181678 7.88968,11.434486 3.167718,3.052064 6.62178,5.755809 9.990666,8.577326 2.16281,1.811443 4.388358,3.678428 6.282944,5.774012 0.952754,1.053846 1.985772,2.634657 3.538389,2.730246 1.521968,0.09373 2.352886,-1.028192 3.306402,-2.015828 1.609429,-1.667172 3.214286,-3.430016 5.075598,-4.825577 m 4.741336,-24.774481 c 2.92582,-0.406654 6.36075,0.582168 7.54244,3.523149 0.43333,1.078314 0.62713,2.174917 0.87732,3.302 0.0704,0.316992 0.12259,0.981202 0.44111,1.156885 0.31928,0.176107 0.80323,-0.287528 1.04513,-0.452374 0.90525,-0.617135 1.79053,-1.308693 2.794,-1.763014 0.66818,-0.302599 1.46066,-0.580813 2.20133,-0.600625 1.62738,-0.04352 3.31656,1.044109 4.48496,2.070777 3.851569,3.384296 3.182879,9.278789 -0.40902,12.590949 -2.51748,2.321475 -5.86596,3.376422 -9.07127,4.358555 -1.24587,0.381677 -2.4721,0.825923 -3.72534,1.185164 -1.00939,0.289306 -2.00448,0.708829 -2.96333,1.133602 -0.51444,0.227838 -1.03895,0.569383 -1.60867,0.623485 -0.75582,0.07188 -1.28575,-0.330793 -1.59901,-0.99949 -0.37186,-0.793581 -0.62747,-1.649476 -0.97976,-2.455248 -0.50657,-1.158748 -1.10516,-2.268813 -1.69334,-3.386667 -2.320287,-4.410286 -5.527884,-9.77756 -3.54626,-14.901333 0.25654,-0.663278 0.569722,-1.307422 0.963083,-1.900173 0.522055,-0.786554 1.112604,-1.454743 1.859957,-2.035641 0.96681,-0.751586 2.16992,-1.280922 3.38667,-1.450001 z"
       id="path612" /></g></svg>
