<?xml version="1.0" encoding="UTF-8" standalone="no"?>
<!-- Created with Inkscape (http://www.inkscape.org/) -->

<svg
   width="67.619987mm"
   height="47.079166mm"
   viewBox="0 0 67.619987 47.079166"
   version="1.1"
   id="svg5"
   xml:space="preserve"
   inkscape:version="1.2.1 (9c6d41e410, 2022-07-14)"
   sodipodi:docname="gun.svg"
   xmlns:inkscape="http://www.inkscape.org/namespaces/inkscape"
   xmlns:sodipodi="http://sodipodi.sourceforge.net/DTD/sodipodi-0.dtd"
   xmlns="http://www.w3.org/2000/svg"
   xmlns:svg="http://www.w3.org/2000/svg"><sodipodi:namedview
     id="namedview7"
     pagecolor="#ffffff"
     bordercolor="#000000"
     borderopacity="0.25"
     inkscape:showpageshadow="2"
     inkscape:pageopacity="0.0"
     inkscape:pagecheckerboard="0"
     inkscape:deskcolor="#d1d1d1"
     inkscape:document-units="mm"
     showgrid="false"
     inkscape:zoom="2.2097881"
     inkscape:cx="144.584"
     inkscape:cy="116.75328"
     inkscape:window-width="1858"
     inkscape:window-height="1057"
     inkscape:window-x="54"
     inkscape:window-y="-8"
     inkscape:window-maximized="1"
     inkscape:current-layer="layer1" /><defs
     id="defs2" /><g
     inkscape:label="Calque 1"
     inkscape:groupmode="layer"
     id="layer1"
     transform="translate(-77.843065,-101.41203)"><path
       style="fill:#f3f3f4;stroke:none;stroke-width:0.0846667"
       d="m 128.26997,145.49601 c -0.5632,0.30006 -1.15985,0.3639 -1.76403,0.53966 -0.30717,0.0893 -0.61748,0.24681 -0.66421,0.59775 -0.14681,1.10194 1.64541,1.86208 2.51291,1.85776 0.82042,-0.004 1.63897,-0.1806 2.45533,-0.24994 2.53941,-0.21564 5.07771,-0.5229 7.62,-0.69714 0.79349,-0.0544 1.58081,-0.14055 2.37007,-0.23944 0.38193,-0.0479 0.84159,-0.0962 1.07332,-0.44823 0.60105,-0.91321 -0.59072,-2.04825 -1.07273,-2.71509 0.55389,-0.0756 1.16129,-0.0751 1.68233,-0.29447 0.59411,-0.25019 1.08941,-0.75827 1.6201,-1.11827 0.4986,-0.33825 1.11624,-0.69707 1.28371,-1.31894 0.17509,-0.65007 0.0165,-1.37711 -0.15189,-2.00965 -0.28837,-1.08323 -0.65219,-2.11015 -1.11167,-3.13267 -1.83896,-4.09151 -4.53289,-7.69814 -6.22605,-11.85333 -0.70536,-1.73092 -1.47083,-3.68461 -1.39514,-5.588 0.0803,-2.02184 1.64457,-3.8326 3.45195,-4.59206 0.81618,-0.3429 2.37388,-0.14495 2.76995,-1.10372 0.33782,-0.81754 -0.48234,-1.73617 -0.64897,-2.51689 -0.15756,-0.7382 -0.0971,-1.4544 -0.0905,-2.20133 0.009,-0.98764 0.002,-1.9757 0.002,-2.96333 -2.6e-4,-0.74591 0.11862,-1.72111 -0.49234,-2.2777 -0.34027,-0.31014 -0.83193,-0.29905 -1.17856,-0.58497 -0.41182,-0.33976 -0.46533,-1.17398 -1.12327,-1.17398 -0.53814,0 -0.68199,0.57598 -0.92752,0.93903 -0.18796,0.27788 -0.44755,0.4053 -0.7753,0.44654 -1.1794,0.1485 -2.44297,0.0264 -3.63101,0.0264 h -7.02733 -34.035997 c -3.05511,0 -6.17804,0.18872 -9.2261,-0.0122 -0.33005,-0.0218 -0.63964,-0.0917 -0.8803,-0.3335 -0.37356,-0.37533 -0.58214,-1.01736 -1.23793,-0.87935 -0.53987,0.11362 -0.87798,0.63762 -1.30512,0.94107 -0.48002,0.34095 -1.04573,0.43002 -1.43074,0.91135 -1.69328,2.11692 -0.39874,4.77165 -0.39765,7.16195 7e-4,1.53755 -0.12723,3.27711 0.74348,4.61569 0.18843,0.28973 0.37097,0.60766 0.66316,0.80594 0.53807,0.36509 1.74132,0.38371 2.35089,0.19372 0.40106,-0.12505 0.67914,-0.50622 1.13634,-0.44145 0.59297,0.0841 0.99636,0.62873 1.6272,0.7101 1.02513,0.13216 2.09885,0.0339 3.13077,0.0446 1.66514,0.0173 3.32808,0.0806 4.99533,0.0829 0.76395,0.001 1.5229,0.0707 2.286,0.0816 1.00457,0.0143 1.99602,-0.0698 2.87672,0.50766 2.128767,1.39573 1.898477,4.68621 1.39759,6.86121 -0.15773,0.68479 -0.48505,1.33994 -0.60604,2.02887 -0.076,0.43265 0.0583,0.81864 0.50707,0.94945 1.275667,0.37194 2.807967,0.1066 4.121987,0.17289 1.7769,0.0896 3.55617,0.0959 5.334,0.16189 1.45517,0.0539 2.9486,0.18118 4.40267,0.0371 1.8404,-0.18229 3.50139,-2.10888 5.33137,-0.89882 1.45017,0.95893 1.89933,2.94648 2.44899,4.49131 1.12446,3.16061 2.51866,6.22241 3.60282,9.398 0.35094,1.02785 0.619,2.12691 0.62721,3.21733 0.004,0.59343 -0.096,1.37948 0.49454,1.74532 0.63034,0.39057 1.76699,0.11828 2.48107,0.11735 m -18.37267,-20.99733 c -0.0213,0.10727 -0.0545,0.22233 -0.0561,0.33325 -0.005,0.36753 0.25408,0.45305 0.57937,0.36262 0.48777,-0.13563 0.94107,-0.46863 1.33647,-0.77334 0.59571,-0.45923 1.10718,-1.00813 1.5483,-1.6162 0.54584,-0.75244 0.83227,-1.37584 1.75911,-1.68724 0.43096,-0.14478 1.33994,-0.60029 1.62518,-0.0246 0.21209,0.42808 0.1292,1.01473 0.0169,1.45813 -0.3158,1.24765 -1.14951,2.28431 -2.32198,2.82084 -1.01651,0.46516 -2.12674,0.39675 -3.21725,0.3965 -1.73643,-5.1e-4 -3.51671,-0.006 -5.24933,-0.11837 -1.01736,-0.0662 -2.01168,-0.0511 -2.86588,-0.69443 -1.36881,-1.03099 -1.52815,-2.8564 -1.39768,-4.43654 0.0532,-0.64329 0.13149,-1.28049 0.43409,-1.86131 0.27906,-0.5356 0.704,-0.98967 1.20971,-1.318 1.57861,-1.02481 3.59156,-0.47117 5.32909,-0.2413 0.65659,0.0869 1.4688,0.07 2.07823,0.34493 0.62967,0.28397 0.69071,1.02988 0.709,1.63635 0.0166,0.55033 0.0582,1.16595 -0.12607,1.69333 -0.33265,0.95233 -1.286,1.68089 -1.89899,2.45525 -0.30268,0.38236 -0.80755,1.29261 0.0744,1.32283 0.14682,0.005 0.2899,-0.0279 0.43341,-0.0527 z"
       id="path209" /></g></svg>
