<?xml version="1.0" encoding="UTF-8" standalone="no"?>
<!-- Created with Inkscape (http://www.inkscape.org/) -->

<svg
   width="67.183243mm"
   height="52.363033mm"
   viewBox="0 0 67.183243 52.363033"
   version="1.1"
   id="svg5"
   sodipodi:docname="manual.svg"
   xml:space="preserve"
   inkscape:version="1.2.1 (9c6d41e410, 2022-07-14)"
   xmlns:inkscape="http://www.inkscape.org/namespaces/inkscape"
   xmlns:sodipodi="http://sodipodi.sourceforge.net/DTD/sodipodi-0.dtd"
   xmlns="http://www.w3.org/2000/svg"
   xmlns:svg="http://www.w3.org/2000/svg"><sodipodi:namedview
     id="namedview7"
     pagecolor="#ffffff"
     bordercolor="#000000"
     borderopacity="0.25"
     inkscape:showpageshadow="2"
     inkscape:pageopacity="0.0"
     inkscape:pagecheckerboard="0"
     inkscape:deskcolor="#d1d1d1"
     inkscape:document-units="mm"
     showgrid="false"
     inkscape:zoom="2.2097881"
     inkscape:cx="258.16956"
     inkscape:cy="111.32289"
     inkscape:window-width="1858"
     inkscape:window-height="1057"
     inkscape:window-x="54"
     inkscape:window-y="-8"
     inkscape:window-maximized="1"
     inkscape:current-layer="layer1" /><defs
     id="defs2" /><g
     inkscape:label="Calque 1"
     inkscape:groupmode="layer"
     id="layer1"
     transform="translate(135.54466,-41.713454)"><path
       style="fill:#f3f3f4;stroke:none;stroke-width:0.0846667"
       d="m -116.91338,41.790303 c -1.04157,0.110143 -2.08982,0.11259 -3.13266,0.244662 -2.22775,0.282143 -4.47167,0.757351 -6.604,1.463353 -0.7438,0.246295 -1.48146,0.495808 -2.20134,0.806873 -0.37951,0.164 -0.77462,0.330962 -1.02667,0.67581 -0.27045,0.370077 -0.243,0.823891 -0.24331,1.259162 l -2e-5,2.201333 c -1e-5,0.332317 0.0889,0.848191 -0.11523,1.135719 -0.30521,0.429937 -1.44132,0.201253 -1.91677,0.296503 -1.18523,0.237405 -2.20753,0.877824 -2.80628,1.954445 -0.59362,1.067392 -0.58038,2.20201 -0.58038,3.386666 v 3.640667 15.747999 11.853333 c 0,1.925743 -0.16298,3.946906 1.44781,5.337894 1.31636,1.136735 2.73066,0.797983 4.30952,0.964946 1.29072,0.136483 2.59944,-0.03751 3.89467,-0.03751 h 8.636 7.78933 c 1.3103,0 2.67513,-0.109644 3.97933,0.01812 0.63949,0.06265 0.9945,0.526288 1.524,0.82694 0.63043,0.357801 1.31361,0.50927 2.032,0.50927 0.72822,0 1.39099,-0.159936 2.030903,-0.516128 0.495977,-0.276183 0.854117,-0.712978 1.440857,-0.78232 1.306407,-0.154263 2.665137,-0.05588 3.97891,-0.05588 h 7.196666 10.414 3.386666 c 0.609262,0 1.260094,0.06325 1.862667,-0.03734 1.526709,-0.254677 2.826512,-1.50876 3.177624,-3.010662 0.147405,-0.630682 0.03971,-1.305221 0.03971,-1.947333 V 84.001492 60.464159 55.045493 c 0,-1.355259 0.07493,-2.595372 -0.816187,-3.72491 -0.630512,-0.799168 -1.566672,-1.327912 -2.570479,-1.487762 -0.467614,-0.07451 -1.522476,0.180509 -1.832102,-0.255609 -0.204132,-0.287528 -0.115232,-0.803402 -0.115232,-1.135719 v -2.116666 c -1.69e-4,-0.601811 0.01998,-1.167554 -0.481584,-1.589701 -0.412496,-0.347303 -0.972312,-0.516298 -1.465749,-0.713232 -1.18237,-0.471678 -2.409867,-0.817872 -3.640666,-1.137887 -5.192353,-1.350043 -10.905744,-1.557832 -16.171333,-0.490109 -1.431375,0.290245 -2.844292,0.62373 -4.233333,1.080795 -0.654808,0.215477 -1.514938,0.746337 -2.201328,0.743373 -0.47363,-0.0019 -1.00051,-0.318939 -1.43934,-0.480398 -0.85598,-0.314977 -1.73651,-0.607281 -2.62467,-0.816746 -2.47988,-0.584835 -4.90855,-0.958477 -7.45066,-1.091446 -1.14876,-0.06009 -2.32139,-0.160782 -3.47134,-0.03918 m 13.63134,43.650525 c -0.8056,-0.204555 -1.57328,-0.546354 -2.37067,-0.783082 -1.49191,-0.442976 -3.03048,-0.755481 -4.572,-0.965539 -4.41782,-0.60198 -8.93767,-0.380407 -13.29267,0.555075 -1.36,0.2921 -2.63626,0.854795 -3.97933,1.193546 V 57.924156 c 0,-2.596558 0.004,-5.194554 5e-5,-7.789333 l -5e-5,-2.201334 c 10e-6,-0.333163 -0.0658,-0.763778 0.0778,-1.074674 0.20689,-0.447886 0.85882,-0.558969 1.27691,-0.709676 1.29692,-0.467275 2.6261,-0.831342 3.97933,-1.093639 4.68486,-0.908134 9.64489,-0.880364 14.30867,0.150114 1.1148,0.24638 2.23647,0.548132 3.302,0.960543 0.35543,0.137668 0.92278,0.235543 1.15477,0.566336 0.16425,0.234188 0.11497,0.592497 0.11523,0.86233 v 1.947333 7.450666 28.447999 m 2.794,0 c -0.16121,-0.679196 -0.0847,-1.421807 -0.0847,-2.116667 v -3.556 -11.429999 -14.901333 -4.402666 c 0,-0.634577 -0.15113,-1.496737 0.0496,-2.102866 0.15858,-0.478875 0.882648,-0.647954 1.30505,-0.799761 1.34476,-0.483108 2.742607,-0.866733 4.148666,-1.123696 4.581652,-0.837438 9.504003,-0.854541 14.054666,0.193717 1.004994,0.231479 1.981878,0.504529 2.963333,0.819912 0.465244,0.149521 1.110658,0.298281 1.474386,0.642197 0.447548,0.423248 0.218948,1.634828 0.218948,2.201164 v 6.265333 22.521332 5.672666 c 0,0.451358 0.0057,0.90314 -6.78e-4,1.354413 -0.0025,0.179747 0.02193,0.446871 -0.114554,0.588941 -0.128693,0.134028 -0.329692,0.06511 -0.479213,0.01346 -0.396071,-0.136736 -0.785199,-0.290237 -1.183555,-0.422825 -1.632543,-0.543137 -3.308096,-0.832104 -4.995333,-1.135211 -0.894758,-0.160697 -1.806025,-0.179578 -2.709333,-0.24257 -3.622125,-0.252391 -7.285482,-0.03937 -10.837333,0.779018 -1.304629,0.300567 -2.526453,0.836253 -3.81,1.181439 M -89.058001,51.20433 c -2.688505,0.567267 -2.789682,4.59105 -0.08467,5.214366 0.4064,0.09364 0.863007,0.09068 1.27,0.0022 2.746756,-0.596731 2.621364,-4.653026 -0.08467,-5.216652 -0.353907,-0.07374 -0.746845,-0.07451 -1.100667,8.5e-5 m -2.116666,12.053823 v 13.377333 h 5.334 v -10.583333 -3.048 c 0,-0.509354 0.08932,-1.124796 -0.102786,-1.607396 -0.213783,-0.537126 -0.696637,-0.799169 -1.251881,-0.838624 -1.481074,-0.10524 -3.002365,-0.0093 -4.487333,-0.0093 -0.680974,0 -1.405975,-0.09584 -1.922272,0.442722 -0.665988,0.69469 -0.378545,1.751753 0.483447,2.115989 0.589872,0.249259 1.320884,0.150622 1.946825,0.150622 z"
       id="path631" /></g></svg>
