<?xml version="1.0" encoding="UTF-8" standalone="no"?>
<!-- Created with Inkscape (http://www.inkscape.org/) -->

<svg
   width="56.552734mm"
   height="66.380066mm"
   viewBox="0 0 56.552734 66.380066"
   version="1.1"
   id="svg5"
   sodipodi:docname="manual.svg"
   xml:space="preserve"
   inkscape:version="1.2.1 (9c6d41e410, 2022-07-14)"
   xmlns:inkscape="http://www.inkscape.org/namespaces/inkscape"
   xmlns:sodipodi="http://sodipodi.sourceforge.net/DTD/sodipodi-0.dtd"
   xmlns="http://www.w3.org/2000/svg"
   xmlns:svg="http://www.w3.org/2000/svg"><sodipodi:namedview
     id="namedview7"
     pagecolor="#ffffff"
     bordercolor="#000000"
     borderopacity="0.25"
     inkscape:showpageshadow="2"
     inkscape:pageopacity="0.0"
     inkscape:pagecheckerboard="0"
     inkscape:deskcolor="#d1d1d1"
     inkscape:document-units="mm"
     showgrid="false"
     inkscape:zoom="1.104894"
     inkscape:cx="-51.136126"
     inkscape:cy="346.63958"
     inkscape:window-width="1858"
     inkscape:window-height="1057"
     inkscape:window-x="54"
     inkscape:window-y="-8"
     inkscape:window-maximized="1"
     inkscape:current-layer="layer1" /><defs
     id="defs2" /><g
     inkscape:label="Calque 1"
     inkscape:groupmode="layer"
     id="layer1"
     transform="translate(-89.352391,84.406616)"><path
       style="fill:#f3f3f4;stroke:none;stroke-width:0.0840052"
       d="m 115.66832,-76.159308 h 3.86424 V -80.8636 c 0,-0.696369 0.15121,-1.60355 -0.0783,-2.26814 -0.40658,-1.177145 -2.02856,-1.698527 -3.00982,-0.872005 -0.81536,0.686723 -0.73253,1.770415 -0.7006,2.720119 0.0575,1.711522 -0.0344,3.417492 -0.0755,5.124318 m -13.44084,7.476463 2.68817,-2.604161 c -0.25101,-0.61265 -0.85282,-1.065522 -1.30704,-1.531751 -0.83484,-0.857105 -1.68397,-1.699846 -2.53763,-2.537629 -0.42313,-0.415322 -0.80603,-0.902216 -1.363653,-1.144387 -1.311321,-0.56953 -2.799222,0.505779 -2.613318,1.937564 0.126344,0.97278 1.014615,1.663891 1.676744,2.305354 1.174393,1.137851 2.437997,2.293847 3.456727,3.57501 m 30.5779,-0.08401 c 0.98168,-0.45388 1.85147,-1.564765 2.5703,-2.358866 0.71514,-0.789901 1.53881,-1.479416 2.26428,-2.26142 1.13625,-1.224796 0.42003,-3.376951 -1.39037,-3.261553 -0.90138,0.05745 -1.45934,0.703678 -2.05334,1.309776 -0.834,0.851056 -1.70152,1.664395 -2.52016,2.531832 -0.33022,0.35005 -1.12432,0.824344 -1.18052,1.337951 -0.0343,0.31334 0.38718,0.58308 0.58266,0.771252 0.6234,0.600049 1.19397,1.249493 1.72715,1.931028 m -15.961,-3.827025 c -1.70707,0.180611 -3.41213,0.335684 -5.04031,0.939178 -5.21244,1.931951 -9.44883,6.406573 -10.90262,11.792398 -0.42465,1.57325 -0.43809,3.25579 -0.43809,4.872302 0,1.589211 0.0107,3.335259 0.46144,4.872302 0.7143,2.435647 1.88063,4.625746 3.4958,6.58962 1.17968,1.434389 2.74604,2.655741 3.68514,4.274941 0.3156,0.54427 0.30855,1.212111 0.37516,1.820225 0.13769,1.257558 -0.0687,2.633647 0.18372,3.864239 0.19632,0.957323 0.90608,1.965134 1.71153,2.502515 1.38818,0.926073 2.88566,0.692119 4.4521,0.689767 l 5.54435,-8.4e-5 c 0.94329,0 1.91758,0.08602 2.85617,-0.02218 0.47463,-0.05469 0.93137,-0.235382 1.34409,-0.471521 0.33232,-0.190104 0.64062,-0.434727 0.91372,-0.702619 1.30443,-1.2794 1.16398,-2.919853 1.1875,-4.600041 0.018,-1.285196 0.20707,-2.706816 0.95657,-3.779142 0.87617,-1.253442 2.13163,-2.289982 3.13549,-3.445726 1.28713,-1.481852 2.21917,-3.142382 2.93296,-4.955887 0.20195,-0.513188 0.46446,-0.97068 0.60114,-1.512093 0.23891,-0.946907 0.33728,-1.971351 0.45363,-2.940183 0.13617,-1.133398 0.3072,-2.2069 0.22244,-3.360208 -0.0633,-0.861473 -0.26764,-1.75554 -0.43195,-2.604161 -0.11904,-0.615086 -0.19069,-1.248989 -0.38374,-1.847022 -2.00445,-6.210841 -7.71504,-11.049289 -14.20805,-11.850783 -1.01764,-0.125671 -2.08484,-0.234122 -3.10819,-0.125839 m -25.705597,14.618424 c -0.545337,0.07056 -1.094126,0.277805 -1.43596,0.733114 -0.65477,0.872058 -0.356358,2.295946 0.598294,2.802833 0.617287,0.327789 1.421939,0.205561 2.097744,0.205561 h 3.528218 c 0.476142,0 1.107525,0.121303 1.56653,0.0069 0.300318,-0.07485 0.277469,-0.432794 0.280913,-0.679182 0.01025,-0.728577 -0.03486,-1.45959 0.06116,-2.183883 0.03318,-0.249999 0.163054,-0.687583 -0.112063,-0.84694 -0.42683,-0.247228 -1.314933,-0.07712 -1.796536,-0.07712 -1.566445,0 -3.234259,-0.162214 -4.788296,0.03873 m 46.286863,-0.03873 0.16801,3.780234 h 4.7043 c 0.74033,0 1.63499,0.134324 2.35206,-0.06788 1.17909,-0.332325 1.65734,-2.078541 0.86542,-3.021667 -0.61736,-0.735298 -1.59434,-0.690691 -2.46144,-0.690691 h -5.62835 M 133.851,-42.3294 c -0.34871,0.137349 -0.68876,0.822747 -0.90709,1.116262 -0.32972,0.443211 -1.06409,1.045276 -1.15658,1.596098 -0.0628,0.373908 0.26873,0.654317 0.50781,0.886843 0.59324,0.577032 1.16213,1.174561 1.76235,1.745208 0.82669,0.786121 1.65549,1.861052 2.94799,1.359625 1.02974,-0.399445 1.50857,-1.650199 0.98925,-2.647172 -0.53277,-1.022764 -1.68238,-1.802332 -2.47329,-2.617518 -0.37567,-0.387264 -0.74613,-0.778981 -1.12651,-1.161876 -0.13491,-0.135837 -0.32585,-0.363239 -0.54393,-0.27747 m -32.63501,0.08401 c -0.4081,0.128108 -0.7805,0.682794 -1.0893,0.966899 -0.716227,0.659021 -1.397425,1.362649 -2.061822,2.073501 -0.35845,0.383568 -0.769824,0.739414 -0.906584,1.268058 -0.360802,1.394991 0.850721,2.778557 2.297038,2.357775 0.648018,-0.188592 1.077618,-0.70682 1.531668,-1.168849 0.52772,-0.537213 1.06493,-1.067958 1.60441,-1.593747 0.3015,-0.293766 0.87752,-0.659944 0.94582,-1.107272 0.0443,-0.289734 -0.1996,-0.550066 -0.36736,-0.756047 -0.41162,-0.505375 -0.84223,-0.992606 -1.2379,-1.511422 -0.16918,-0.221773 -0.37306,-0.636507 -0.71597,-0.528896 m 11.76375,13.08255 c -0.60837,0.06393 -1.12693,0.159946 -1.54385,0.656753 -0.76957,0.917084 -0.36634,2.343157 0.70422,2.789476 0.84853,0.35383 2.11701,0.128444 3.02418,0.128444 h 5.29233 c 0.81569,0 1.82182,0.156082 2.60416,-0.103242 1.56847,-0.519908 1.5473,-2.945306 -0.084,-3.378857 -1.17674,-0.312836 -2.56955,-0.113323 -3.78023,-0.113323 -2.0404,0 -4.18892,-0.192288 -6.2168,0.02075 m 0.40742,4.540985 c -0.71068,0.06771 -1.34366,0.0457 -1.88625,0.592489 -0.85081,0.857441 -0.46237,2.444299 0.63928,2.875498 0.36685,0.143649 0.78981,0.101982 1.17599,0.101982 h 2.01612 5.12432 c 0.81838,1.68e-4 1.71471,0.146842 2.52015,-0.04839 1.69775,-0.411625 1.59266,-2.951522 0,-3.411367 -1.12692,-0.325352 -2.45127,-0.152469 -3.61222,-0.152469 -1.97379,0 -4.01184,-0.144993 -5.97739,0.04225 m 0.18103,4.578032 c 0.0374,1.167588 1.06401,1.675988 2.10013,1.903054 0.61013,0.133736 1.22765,0.113071 1.84812,0.113071 1.63054,0 3.80308,-0.0017 4.28426,-1.93212 l -2.94018,-0.08401 z"
       id="path650" /></g></svg>
