<?xml version="1.0" encoding="UTF-8" standalone="no"?>
<!-- Created with Inkscape (http://www.inkscape.org/) -->

<svg
   width="64.989838mm"
   height="67.798996mm"
   viewBox="0 0 64.989838 67.798996"
   version="1.1"
   id="svg5"
   sodipodi:docname="news.svg"
   xml:space="preserve"
   inkscape:version="1.2.1 (9c6d41e410, 2022-07-14)"
   xmlns:inkscape="http://www.inkscape.org/namespaces/inkscape"
   xmlns:sodipodi="http://sodipodi.sourceforge.net/DTD/sodipodi-0.dtd"
   xmlns="http://www.w3.org/2000/svg"
   xmlns:svg="http://www.w3.org/2000/svg"><sodipodi:namedview
     id="namedview7"
     pagecolor="#ffffff"
     bordercolor="#000000"
     borderopacity="0.25"
     inkscape:showpageshadow="2"
     inkscape:pageopacity="0.0"
     inkscape:pagecheckerboard="0"
     inkscape:deskcolor="#d1d1d1"
     inkscape:document-units="mm"
     showgrid="false"
     inkscape:zoom="1.104894"
     inkscape:cx="362.4782"
     inkscape:cy="242.5572"
     inkscape:window-width="1858"
     inkscape:window-height="1057"
     inkscape:window-x="54"
     inkscape:window-y="-8"
     inkscape:window-maximized="1"
     inkscape:current-layer="layer1" /><defs
     id="defs2" /><g
     inkscape:label="Calque 1"
     inkscape:groupmode="layer"
     id="layer1"
     transform="translate(99.22089,-20.952899)"><path
       style="fill:#f3f3f4;stroke:none;stroke-width:0.0846667"
       d="m -98.295607,20.995366 c 0,0.242006 -0.23975,0.214374 -0.42333,0.366887 -0.20949,0.174042 -0.39314,0.461946 -0.42334,0.73378 -0.17688,1.591961 0,3.307469 0,4.910666 v 10.16 30.733998 11.514666 c 0,2.103205 -0.19303,4.384887 1.12889,6.180666 0.79639,1.081871 1.7723,2.002875 3.01978,2.54 0.46636,0.20083 0.97717,0.206164 1.43933,0.366861 0.13386,0.04657 0.21947,0.17018 0.35278,0.211667 0.2399,0.07476 0.58164,0.01414 0.83256,0.01414 h 1.86266 6.096 35.39067 10.32933 2.286 c 0.6753,0 1.14723,0.06155 1.69333,-0.366861 0.61096,-0.479382 0.42334,-1.407668 0.42334,-2.088472 V 80.854696 58.333364 35.812032 29.800699 c 0,-0.750054 0.21149,-1.881734 -0.18348,-2.54 -0.33722,-0.562034 -0.92938,-0.592667 -1.50986,-0.592667 h -2.62466 c -0.31945,0 -0.92643,0.11695 -1.18534,-0.09878 -0.2683,-0.223563 -0.0847,-1.154142 -0.0847,-1.509886 0,-1.354862 0.41935,-3.260902 -0.95953,-4.021667 -0.29329,-0.161793 -0.91051,-0.04233 -1.24181,-0.04233 h -3.13266 -11.43 -41.656 m 55.54133,59.266664 h -53.594 v -40.809332 -11.091332 -3.048 l 0.0778,-1.305044 0.76898,-0.218728 2.03193,-2.28e-4 h 8.72067 31.74999 7.70467 l 1.77792,6.86e-4 0.72347,0.21827 0.0388,1.13571 -1.7e-4,2.963334 v 11.006666 41.147998 m -48.006,-47.836665 c 0.7504,0.615442 1.27762,1.510454 1.85217,2.286085 0.96639,1.304375 1.9569,2.590038 2.92295,3.894582 0.56879,0.768265 1.24621,2.10566 2.33688,2.104982 1.46347,-9.31e-4 1.43934,-1.566164 1.43934,-2.612982 v -7.196666 -2.032 c -9e-5,-0.418626 0.0344,-0.872558 -0.12269,-1.269941 -0.43815,-1.108651 -2.00854,-1.246861 -2.56751,-0.160867 -0.22488,0.436914 -0.18839,0.954761 -0.18847,1.430808 v 2.370666 c 0,1.245108 0.0687,2.484205 0.0847,3.725333 -0.75117,-0.616119 -1.27551,-1.511215 -1.85251,-2.286084 -0.96952,-1.30192 -1.95665,-2.590123 -2.92261,-3.894582 -0.54542,-0.736592 -1.2269,-2.056291 -2.25222,-2.104017 -1.53104,-0.07127 -1.524,1.524093 -1.524,2.612017 v 7.112 c 0,1.03107 -0.23561,2.406649 0.11818,3.386158 0.41431,1.147064 1.97529,1.205484 2.5589,0.168571 0.24308,-0.431969 0.2015,-0.960374 0.20159,-1.438063 v -2.370666 c 0,-1.246209 -0.0547,-2.48285 -0.0847,-3.725334 m 14.13934,5.503334 v -2.794 h 2.032 c 0.44974,-3.39e-4 0.93658,0.02472 1.35415,-0.172043 1.07637,-0.506984 1.12937,-1.911265 0.0839,-2.48285 -0.9227,-0.504529 -2.44839,-0.223774 -3.47006,-0.223774 v -2.794 h 2.11666 c 0.42325,-9.3e-5 0.87029,0.0304 1.26882,-0.138794 0.94843,-0.402531 1.14139,-1.589845 0.40513,-2.291308 -0.44171,-0.420878 -1.02413,-0.363864 -1.58928,-0.363898 h -3.048 c -0.72399,1.7e-4 -1.40157,0.04855 -1.78571,0.766716 -0.19397,0.362678 -0.16154,0.782752 -0.16162,1.180618 v 1.862666 6.604 c 0,0.847682 -0.22691,2.093214 0.15925,2.869522 0.1977,0.397341 0.58717,0.687748 1.0265,0.75057 1.22335,0.174837 2.57378,0.02066 3.80958,0.02057 0.61078,0 1.20675,0.04115 1.6615,-0.442722 0.65921,-0.701463 0.4152,-1.851829 -0.47735,-2.227495 -0.39455,-0.166116 -0.85048,-0.123782 -1.26882,-0.123782 h -2.11666 m 12.61533,-2.370667 h 0.16933 c 0.43841,1.200912 0.78401,2.435352 1.2104,3.640666 0.20904,0.591143 0.42595,1.217253 1.07586,1.444922 1.4754,0.51689 1.88484,-1.069002 2.14816,-2.122255 l 1.8415,-7.366 0.508,-2.031999 c 0.10168,-0.406908 0.26094,-0.845964 0.18914,-1.27 -0.19134,-1.130216 -1.66217,-1.558993 -2.42697,-0.716975 -0.3429,0.377504 -0.42579,0.91501 -0.53856,1.394308 -0.16646,0.707652 -0.34908,1.413595 -0.53391,2.116667 -0.30031,1.142745 -0.46499,2.356442 -0.84895,3.471333 h -0.16934 c -0.29438,-0.901108 -0.57962,-1.806364 -0.86901,-2.709334 -0.1563,-0.487595 -0.27178,-1.039029 -0.67437,-1.390565 -0.62307,-0.544068 -1.61748,-0.440351 -2.122,0.212768 -0.2783,0.360341 -0.37127,0.840401 -0.51884,1.262464 -0.30328,0.86741 -0.58869,1.733127 -0.81111,2.624667 h -0.16933 c -0.35052,-1.136142 -0.59961,-2.317327 -0.88815,-3.471333 -0.19736,-0.789432 -0.38058,-1.582649 -0.58361,-2.370667 -0.10702,-0.415392 -0.20828,-0.889754 -0.52434,-1.202157 -0.84311,-0.833357 -2.36322,-0.242976 -2.39421,0.948165 -0.0112,0.431724 0.15071,0.855235 0.24994,1.269992 0.18254,0.763439 0.36932,1.527217 0.57023,2.286 0.56574,2.136563 1.05258,4.294208 1.60291,6.434666 0.2689,1.046057 0.36771,2.70002 1.79789,2.697649 0.72585,-0.0012 1.18881,-0.540766 1.42706,-1.173649 0.48971,-1.301327 0.91093,-2.640245 1.28228,-3.979333 m 12.954,-8.837024 c -1.27779,0.257074 -2.40039,1.235592 -2.79519,2.487024 -0.18389,0.583015 -0.16857,1.174158 -0.16815,1.778 7.7e-4,1.180169 0.29058,2.282613 1.19008,3.109976 0.70493,0.648377 1.52154,0.899075 2.45059,1.001014 0.45864,0.05038 1.01634,-0.05046 1.43569,0.171958 0.7079,0.375497 0.63483,1.296162 0.59005,1.981708 -0.0517,0.78994 -0.73423,0.678011 -1.34841,0.678011 l -2.286,8.4e-5 c -0.49225,8.47e-4 -1.00304,-0.0025 -1.40021,0.33528 -0.79511,0.676317 -0.59275,1.978491 0.38658,2.358051 0.50716,0.196596 1.15681,0.100584 1.69097,0.100584 1.13385,0 2.4461,0.180764 3.556,-0.06536 1.05647,-0.234273 1.91346,-1.071034 2.13808,-2.135971 0.10999,-0.521547 0.0632,-1.078822 0.0632,-1.608666 0,-1.326642 -0.11278,-2.548636 -1.11506,-3.540422 -0.69621,-0.688848 -1.57277,-0.990176 -2.52561,-1.087966 -0.41122,-0.04216 -0.87206,0.03768 -1.26949,-0.08619 -0.67183,-0.209381 -0.77902,-0.855218 -0.75963,-1.466088 0.0319,-1.000252 0.71789,-1.268222 1.60579,-1.269915 l 2.20133,-2.54e-4 c 0.46745,-0.0018 0.95775,-0.0064 1.34366,-0.309389 0.84117,-0.660468 0.6621,-1.965647 -0.32816,-2.379345 -0.45492,-0.19006 -1.04123,-0.105097 -1.5235,-0.105097 -1.00651,0 -2.14376,-0.145982 -3.13266,0.05298 m 11.176,2.741024 c 0.64905,0 1.29819,-0.0039 1.94725,2.54e-4 0.22851,0.0014 0.5676,-0.03647 0.73152,0.162137 0.18745,0.227161 0.11514,0.665988 0.11523,0.938276 v 2.201333 8.89 31.919331 8.720667 2.370666 c 0,0.309457 0.0793,0.770382 -0.0777,1.051052 -0.14427,0.257725 -0.519,0.217085 -0.76902,0.218694 -0.64906,0.0041 -1.2982,2.54e-4 -1.94725,2.54e-4 h -8.55134 -35.64466 -6.01133 c -1.13759,0 -2.3834,0.121158 -3.47134,-0.277707 -0.85295,-0.312758 -1.55516,-0.854709 -2.07552,-1.598083 -0.13757,-0.196511 -0.41317,-0.5218 -0.34751,-0.783928 0.0677,-0.270256 0.52614,-0.217424 0.72977,-0.218694 0.79013,-0.0051 1.58044,-2.54e-4 2.3706,-2.54e-4 h 9.906 30.64933 8.21266 2.11667 c 0.42968,-8.5e-5 0.88494,0.03785 1.26949,-0.189738 1.16705,-0.690711 0.84718,-2.304881 0.84718,-3.450929 V 69.763364 29.462032 m -52.6622,14.212231 c -1.52177,0.487849 -1.01647,3.025563 -1.01647,4.245102 v 10.837332 l 2e-5,2.455334 c 3.9e-4,0.586486 0.004,1.186688 0.41738,1.65354 0.41966,0.474387 1.03269,0.462703 1.6146,0.463126 h 3.47134 11.09133 3.302 c 0.54043,0 1.17483,0.08704 1.69325,-0.09203 1.51401,-0.522902 1.01608,-2.896447 1.01608,-4.141301 V 48.088698 45.633365 c -1.7e-4,-0.564896 0.0224,-1.128691 -0.38625,-1.574207 -0.46981,-0.512403 -1.09448,-0.457793 -1.73041,-0.457793 h -3.38667 -11.09133 -3.302 c -0.53569,0 -1.17687,-0.09254 -1.69287,0.0729 m 26.75471,0.0011 c -1.26458,0.423672 -1.14961,2.284391 0.0843,2.650574 0.47456,0.140716 1.03421,0.06943 1.52383,0.06943 h 2.794 9.144 3.048 c 0.54229,0 1.1309,0.05969 1.60503,-0.25671 0.99212,-0.662008 0.70358,-2.298615 -0.50436,-2.508757 -1.2838,-0.223351 -2.76106,-0.02853 -4.064,-0.02853 h -8.128 -3.64067 c -0.58106,0 -1.30488,-0.112691 -1.86215,0.074 m -7.95918,2.720001 v 10.329333 2.624666 l -0.11523,1.022943 -0.90077,0.16239 h -2.37066 -9.82134 -2.70933 l -0.97739,-0.218948 -0.039,-1.051052 4.2e-4,-2.709333 V 46.395365 h 16.93333 m 8.382,2.837349 c -1.34942,0.219456 -1.90601,2.013373 -0.50749,2.650066 0.49615,0.225891 1.0773,0.185251 1.60816,0.185251 h 2.62466 9.56734 2.794 c 0.53738,-8.5e-5 1.13343,0.0403 1.60579,-0.263821 1.37888,-0.88773 0.45728,-2.520527 -0.92846,-2.606294 -1.14893,-0.07112 -2.3202,-0.0086 -3.47133,-0.0086 h -6.77334 -4.23333 c -0.74803,0 -1.54584,-0.07705 -2.286,0.04335 m -0.25391,5.686213 c -1.2529,0.300905 -1.49124,2.113026 -0.2535,2.632033 0.43223,0.181186 0.98061,0.105071 1.43874,0.105071 h 2.70934 9.73666 2.87867 c 0.5102,0 1.0784,0.06816 1.51816,-0.243332 1.08483,-0.76835 0.61832,-2.377609 -0.67149,-2.53238 -1.20989,-0.145119 -2.50681,-0.01829 -3.72534,-0.01829 h -7.366 -4.14866 c -0.67793,0 -1.4539,-0.102277 -2.11658,0.0569 m -0.16891,5.689769 c -1.26458,0.423672 -1.14961,2.284391 0.0843,2.650575 0.47456,0.140716 1.03421,0.06943 1.52383,0.06943 h 2.794 9.22867 2.96333 c 0.53671,0 1.1331,0.06401 1.59936,-0.256709 0.979,-0.673439 0.72093,-2.296583 -0.49869,-2.508758 -1.2838,-0.223351 -2.76106,-0.02853 -4.064,-0.02853 h -8.128 -3.64067 c -0.58106,0 -1.30488,-0.112776 -1.86215,0.074 m -25.06184,5.562515 c -1.32129,0.258487 -1.78117,2.062395 -0.42283,2.662936 0.48904,0.216154 1.08704,0.167217 1.60816,0.167217 h 2.62467 9.56733 2.87867 c 0.53932,-8.5e-5 1.12598,0.03666 1.59393,-0.281432 1.23012,-0.836084 0.48726,-2.465155 -0.83193,-2.582842 -1.16866,-0.104224 -2.38278,-0.01439 -3.556,-0.01439 h -6.94267 -4.23333 c -0.74067,0 -1.5566,-0.09415 -2.286,0.04851 m 25.39999,0 c -1.3213,0.258487 -1.78121,2.062395 -0.42282,2.662936 0.48903,0.216154 1.08703,0.167217 1.60816,0.167217 h 2.62466 9.56734 2.794 c 0.56506,-1.7e-4 1.18533,0.03421 1.6786,-0.292016 0.73033,-0.482938 0.85429,-1.495128 0.2264,-2.118021 -0.32555,-0.322919 -0.78351,-0.434679 -1.22767,-0.460417 -1.20599,-0.06985 -2.43264,-0.0082 -3.64067,-0.0082 h -7.02733 -3.97933 c -0.714,0 -1.49809,-0.08907 -2.20134,0.04851 m -25.65382,5.693579 c -1.23641,0.366861 -1.35163,2.227665 -0.0846,2.650575 0.44103,0.147235 0.98053,0.074 1.43908,0.074 h 2.87867 9.398 3.048 c 0.48099,0 1.02015,0.06172 1.43349,-0.234018 1.085,-0.776224 0.60317,-2.361184 -0.67149,-2.53492 -1.28414,-0.175006 -2.6836,-0.02506 -3.97933,-0.02506 h -7.70467 -3.81 c -0.61561,0 -1.3517,-0.107187 -1.94716,0.06943 m 25.39999,0 c -1.23638,0.366861 -1.35161,2.227665 -0.0846,2.650575 0.44103,0.147235 0.98053,0.074 1.43908,0.074 h 2.794 9.398 3.048 c 0.5102,0 1.0784,0.06816 1.51816,-0.243332 1.07171,-0.759036 0.60376,-2.379302 -0.67149,-2.53238 -1.2645,-0.151722 -2.62103,-0.01829 -3.89467,-0.01829 h -7.78933 -3.81 c -0.61561,0 -1.35171,-0.107187 -1.94717,0.06943 z"
       id="path669" /></g></svg>
