<?xml version="1.0" encoding="UTF-8" standalone="no"?>
<!-- Created with Inkscape (http://www.inkscape.org/) -->

<svg
   width="67.530281mm"
   height="67.466026mm"
   viewBox="0 0 67.530281 67.466026"
   version="1.1"
   id="svg5"
   sodipodi:docname="savestate.svg"
   xml:space="preserve"
   inkscape:version="1.2.1 (9c6d41e410, 2022-07-14)"
   xmlns:inkscape="http://www.inkscape.org/namespaces/inkscape"
   xmlns:sodipodi="http://sodipodi.sourceforge.net/DTD/sodipodi-0.dtd"
   xmlns="http://www.w3.org/2000/svg"
   xmlns:svg="http://www.w3.org/2000/svg"><sodipodi:namedview
     id="namedview7"
     pagecolor="#ffffff"
     bordercolor="#000000"
     borderopacity="0.25"
     inkscape:showpageshadow="2"
     inkscape:pageopacity="0.0"
     inkscape:pagecheckerboard="0"
     inkscape:deskcolor="#d1d1d1"
     inkscape:document-units="mm"
     showgrid="false"
     inkscape:zoom="0.78127806"
     inkscape:cx="137.59506"
     inkscape:cy="291.82952"
     inkscape:window-width="1858"
     inkscape:window-height="1057"
     inkscape:window-x="54"
     inkscape:window-y="-8"
     inkscape:window-maximized="1"
     inkscape:current-layer="layer1" /><defs
     id="defs2" /><g
     inkscape:label="Calque 1"
     inkscape:groupmode="layer"
     id="layer1"
     transform="translate(-62.671456,100.62534)"><path
       style="fill:#f3f3f4;stroke:none;stroke-width:0.0846667"
       d="m 68.240223,-33.183506 h 39.115997 11.684 3.556 c 0.59775,0 1.28431,0.09136 1.86267,-0.08103 1.24206,-0.370332 2.3616,-0.975191 3.31461,-1.859703 0.4782,-0.443823 0.80053,-1.089914 1.34205,-1.445938 0.24892,-0.838454 0.84828,-1.593511 0.99213,-2.468456 0.0799,-0.486664 0.0239,-1.018794 0.0239,-1.510877 v -2.878666 -8.974666 -25.823332 -5.926667 c 0,-0.882904 0.18483,-2.004483 -0.0455,-2.858854 -0.23402,-0.867749 -0.91093,-1.725761 -1.43975,-2.432389 -0.49793,-0.665395 -1.10965,-1.659043 -1.90136,-1.99009 -0.12082,-0.454321 -0.46491,-0.72754 -0.76878,-1.068925 -0.53721,-0.603521 -1.08949,-1.152059 -1.66674,-1.716506 -1.2446,-1.217143 -2.49953,-2.407548 -3.77961,-3.583999 -1.20184,-1.104613 -2.58606,-2.287506 -4.20336,-2.710366 -0.43078,-0.11262 -0.90898,-0.0642 -1.35018,-0.0642 h -2.37067 -7.78933 -25.145998 -7.027333 c -1.1303,0 -2.352624,-0.13049 -3.470876,0.0426 -1.006424,0.15579 -2.074866,0.616568 -2.934394,1.155108 -1.73189,1.085113 -3.167199,3.203676 -3.467443,5.237386 -0.200856,1.360492 -0.03329,2.858144 -0.03329,4.232876 v 7.958666 30.310666 8.551332 c 0,1.655572 -0.199774,3.41139 0.446566,4.975437 0.644076,1.558628 1.682309,2.833624 3.055238,3.809238 0.356879,0.253576 0.750257,0.474556 1.154794,0.643043 0.337075,0.140377 0.621318,0.174498 0.846735,0.478282 m 8.381999,-41.994665 -0.338666,-0.338666 c -0.111083,-0.374735 -0.311828,-0.71137 -0.378799,-1.100836 -0.103801,-0.603927 -0.04454,-1.251712 -0.04454,-1.862497 v -3.302 -9.736666 -3.132667 c 0,-0.890084 -0.03861,-1.712282 0.588857,-2.418994 0.751163,-0.846057 1.768517,-0.798339 2.79781,-0.798339 h 5.588 21.082 5.08 c 0.95749,0 1.92083,-0.0799 2.70417,0.582337 1.30827,1.106043 0.85183,3.311559 0.85183,4.836329 v 12.7 c 0,1.672082 0.4246,3.835399 -1.35475,4.768172 -0.84879,0.445008 -2.11879,0.227161 -3.04792,0.227161 h -6.604 -17.271997 -5.588 c -0.957919,0 -2.013796,0.123444 -2.958846,-0.04453 -0.386672,-0.06875 -0.72771,-0.276437 -1.105154,-0.378799 m 25.061337,-20.319999 v 6.096 12.276666 h 7.78933 v -12.276666 -6.096 h -7.78933 m -30.81867,58.589331 -0.249292,-1.524 -0.0047,-5.842 v -11.514665 -5.757333 l 0.06265,-3.048 0.530022,-1.439333 0.338667,-0.338667 c 0.350858,-0.07019 0.663702,-0.257979 1.015999,-0.314113 0.545931,-0.08704 1.141646,-0.02455 1.693334,-0.02455 h 3.217333 7.450666 24.384001 8.72066 c 1.27322,0 2.70265,-0.256117 3.66556,0.763608 0.69105,0.731774 0.65244,1.601386 0.65244,2.538391 v 3.725334 16.848665 3.471334 c 0,1.222671 0.04,2.358897 -1.10185,3.12276 -1.00829,0.674624 -2.48835,0.433239 -3.63948,0.433239 H 109.38823 82.633559 75.77556 c -1.109303,0 -2.445766,0.194564 -3.513921,-0.156125 -0.575902,-0.189061 -0.903562,-0.640165 -1.396746,-0.944541 z"
       id="path688" /></g></svg>
